#!OML:ASF H:\GeneralSubjects\Female5\Project 1\Capture day 1\Session 1\Female5.ASF
:FULLY-SPECIFIED
:DEGREES
21
root -32.7752 16.0822 0.739914 172.822 -78.5718 -163.446
lowerback 11.442 2.73588 5.82614
upperback -10.7625 4.33982 -2.03834
thorax -18.2988 0.864844 -6.75954
lowerneck -10.7355 -0.353261 -7.78417
upperneck 30.5964 -3.35783 11.5979
head 12.0897 -1.42231 5.26426
rclavicle 6.75868e-015 1.27222e-014
rhumerus -49.5299 13.5274 -87.7773
rradius 33.8063
rwrist -9.32955
rhand -24.2621 -21.9649
rfingers 7.12502
rthumb 2.22425 -51.933
lclavicle 6.75868e-015 1.27222e-014
lhumerus -50.3116 -6.26923 72.1458
lradius 33.0632
lwrist -4.25581
lhand -25.8474 28.6538
lfingers 7.12502
lthumb 0.693146 58.6324
rfemur -16.2545 0.291817 27.8566
rtibia 44.6723
rfoot -12.3282 -12.6728
rtoes -39.1948
lfemur -21.3833 -13.4064 -24.6319
ltibia 18.8861
lfoot -14.4134 -0.931281
ltoes -20.2588
22
root -32.6746 16.0664 0.728696 171.315 -78.8534 -162.287
lowerback 11.371 2.71703 5.91436
upperback -10.7656 4.33983 -1.95603
thorax -18.2563 0.864543 -6.70639
lowerneck -10.3809 0.270562 -7.11008
upperneck 30.8899 -2.44264 10.931
head 12.0014 -1.02275 5.00446
rclavicle -2.6339e-014 3.26007e-014
rhumerus -49.8756 13.5012 -87.7798
rradius 33.8647
rwrist -9.4022
rhand -24.2262 -21.9618
rfingers 7.12502
rthumb 2.25887 -51.9296
lclavicle -2.6339e-014 3.26007e-014
lhumerus -50.5225 -5.82899 71.7924
lradius 32.8888
lwrist -4.50462
lhand -25.9246 28.6357
lfingers 7.12502
lthumb 0.618534 58.6145
rfemur -14.4434 -0.486664 27.8116
rtibia 45.8947
rfoot -11.1132 -12.3324
rtoes -39.6474
lfemur -21.8158 -13.1696 -24.4402
ltibia 19.6475
lfoot -13.9084 -0.922997
ltoes -20.1334
23
root -32.5664 16.0472 0.709426 169.299 -79.055 -160.614
lowerback 11.2832 2.71919 6.00868
upperback -10.7759 4.37516 -1.83079
thorax -18.2094 0.883711 -6.61389
lowerneck -10.1436 0.807976 -6.3327
upperneck 31.2697 -1.63118 10.1146
head 12.0011 -0.673657 4.65948
rclavicle -8.54774e-015 -2.46493e-014
rhumerus -50.2199 13.4623 -87.7658
rradius 33.9281
rwrist -9.44128
rhand -24.1472 -21.9607
rfingers 7.12502
rthumb 2.33517 -51.9277
lclavicle -8.54774e-015 -2.46493e-014
lhumerus -50.7792 -5.37834 71.4216
lradius 32.7602
lwrist -4.77873
lhand -25.865 28.6426
lfingers 7.12502
lthumb 0.676139 58.6213
rfemur -12.4951 -1.01856 27.9311
rtibia 46.4063
rfoot -9.48633 -12.2015
rtoes -42.733
lfemur -22.3408 -12.9549 -24.0082
ltibia 20.4373
lfoot -13.4532 -0.823337
ltoes -19.9829
24
root -32.4503 16.0234 0.683365 166.88 -79.1762 -158.543
lowerback 11.1728 2.73894 6.10839
upperback -10.7747 4.43962 -1.66908
thorax -18.1302 0.921681 -6.48622
lowerneck -9.96798 0.926981 -5.70464
upperneck 31.4763 -1.29645 9.06367
head 12.0099 -0.579944 4.1859
rclavicle -1.69961e-014 -2.38542e-015
rhumerus -50.5202 13.4282 -87.735
rradius 33.9684
rwrist -9.44177
rhand -24.0496 -21.9417
rfingers 7.12502
rthumb 2.42943 -51.9076
lclavicle -1.69961e-014 -2.38542e-015
lhumerus -51.0499 -4.9623 71.0754
lradius 32.6413
lwrist -5.05839
lhand -25.7613 28.5993
lfingers 7.12502
lthumb 0.776329 58.5777
rfemur -10.446 -1.29154 28.193
rtibia 46.3566
rfoot -8.23431 -11.9099
rtoes -45.6386
lfemur -22.9294 -12.7773 -23.3766
ltibia 21.2197
lfoot -13.0611 -0.638354
ltoes -19.8082
25
root -32.326 15.9945 0.652258 164.296 -79.2307 -156.318
lowerback 11.0555 2.77099 6.19695
upperback -10.7629 4.52073 -1.48785
thorax -18.0325 0.972152 -6.3325
lowerneck -9.78683 0.759343 -5.29535
upperneck 31.4538 -1.30931 8.02777
head 11.9632 -0.662677 3.70825
rclavicle -4.69132e-014 5.56597e-015
rhumerus -50.7748 13.4162 -87.7077
rradius 33.9765
rwrist -9.42568
rhand -23.9848 -21.8766
rfingers 7.12502
rthumb 2.49205 -51.8418
lclavicle -4.69132e-014 5.56597e-015
lhumerus -51.3346 -4.60585 70.7677
lradius 32.5081
lwrist -5.33236
lhand -25.7073 28.5146
lfingers 7.12502
lthumb 0.828468 58.4928
rfemur -8.33469 -1.34155 28.5554
rtibia 45.7198
rfoot -7.15024 -11.757
rtoes -48.3292
lfemur -23.5532 -12.6472 -22.6218
ltibia 21.9596
lfoot -12.7176 -0.417351
ltoes -19.5774
26
root -32.1918 15.9609 0.619362 161.721 -79.2491 -154.114
lowerback 10.949 2.80517 6.28534
upperback -10.7261 4.60569 -1.3043
thorax -17.9099 1.02724 -6.17687
lowerneck -9.59848 0.295391 -5.05585
upperneck 31.1188 -1.67565 6.96778
head 11.818 -0.919637 3.20251
rclavicle 4.46272e-014 -1.59028e-015
rhumerus -50.9356 13.4338 -87.677
rradius 33.9417
rwrist -9.39437
rhand -23.9876 -21.7477
rfingers 7.12502
rthumb 2.48932 -51.713
lclavicle 4.46272e-014 -1.59028e-015
lhumerus -51.5949 -4.27959 70.4888
lradius 32.3418
lwrist -5.60306
lhand -25.7427 28.4322
lfingers 7.12502
lthumb 0.794237 58.4105
rfemur -6.18144 -1.19375 28.9722
rtibia 44.5194
rfoot -6.48543 -11.527
rtoes -49.5763
lfemur -24.1869 -12.5716 -21.8345
ltibia 22.6466
lfoot -12.4199 -0.194584
ltoes -19.2255
27
root -32.0468 15.9236 0.588703 159.348 -79.2822 -152.111
lowerback 10.8499 2.82976 6.38816
upperback -10.673 4.67684 -1.14329
thorax -17.7714 1.07354 -6.0525
lowerneck -9.33008 -0.316472 -4.83122
upperneck 30.4817 -2.22675 5.8962
head 11.5444 -1.25704 2.67347
rclavicle 1.00386e-014 -1.19271e-014
rhumerus -51.003 13.4899 -87.6483
rradius 33.865
rwrist -9.33692
rhand -24.0807 -21.5659
rfingers 7.12502
rthumb 2.39945 -51.5321
lclavicle 1.00386e-014 -1.19271e-014
lhumerus -51.8396 -3.96802 70.225
lradius 32.1195
lwrist -5.8722
lhand -25.881 28.3482
lfingers 7.12502
lthumb 0.660644 58.3269
rfemur -3.9957 -0.904725 29.375
rtibia 42.7351
rfoot -6.44628 -11.0106
rtoes -49.1081
lfemur -24.8225 -12.5746 -21.1298
ltibia 23.2829
lfoot -12.165 0.00238773
ltoes -18.824
28
root -31.8897 15.8831 0.561646 157.14 -79.3335 -150.251
lowerback 10.7539 2.84323 6.53324
upperback -10.6124 4.73671 -1.00609
thorax -17.6228 1.10782 -5.97694
lowerneck -9.13507 -0.880474 -4.52319
upperneck 29.8423 -2.75176 4.90915
head 11.2769 -1.56173 2.1773
rclavicle -2.23633e-014 8.74653e-015
rhumerus -50.9787 13.6029 -87.6311
rradius 33.7528
rwrist -9.27096
rhand -24.2491 -21.3739
rfingers 7.12502
rthumb 2.23681 -51.342
lclavicle -2.23633e-014 8.74653e-015
lhumerus -52.0703 -3.65723 69.9676
lradius 31.81
lwrist -6.14359
lhand -26.1117 28.2379
lfingers 7.12502
lthumb 0.437848 58.2172
rfemur -1.82395 -0.481581 29.7851
rtibia 40.3804
rfoot -7.1006 -9.94737
rtoes -46.7303
lfemur -25.4693 -12.6729 -20.509
ltibia 23.8542
lfoot -11.9778 0.177225
ltoes -18.4505
29
root -31.7192 15.8404 0.53908 155.282 -79.4287 -148.689
lowerback 10.6748 2.84598 6.70102
upperback -10.5721 4.78053 -0.909339
thorax -17.5098 1.12476 -5.95984
lowerneck -9.15644 -1.23551 -4.0655
upperneck 29.6005 -3.04123 3.93909
head 11.1852 -1.7467 1.70224
rclavicle -3.80673e-014 3.97569e-015
rhumerus -50.9025 13.7763 -87.6414
rradius 33.6254
rwrist -9.21874
rhand -24.4556 -21.2439
rfingers 7.12502
rthumb 2.03731 -51.2139
lclavicle -3.80673e-014 3.97569e-015
lhumerus -52.3415 -3.31133 69.6792
lradius 31.4698
lwrist -6.46124
lhand -26.3541 28.1361
lfingers 7.12502
lthumb 0.203699 58.1158
rfemur 0.253422 0.0346082 30.1607
rtibia 37.5251
rfoot -7.76903 -8.71439
rtoes -43.1331
lfemur -26.1519 -12.9061 -20.0112
ltibia 24.3294
lfoot -11.8847 0.369094
ltoes -18.0488
30
root -31.5346 15.7961 0.519311 153.775 -79.5487 -147.409
lowerback 10.6018 2.84647 6.87758
upperback -10.5511 4.81837 -0.841313
thorax -17.4236 1.13258 -5.98098
lowerneck -9.52697 -1.37649 -3.53425
upperneck 29.9371 -3.07635 2.98149
head 11.3698 -1.81433 1.25183
rclavicle 6.4605e-015 -2.38542e-014
rhumerus -50.7769 14.0012 -87.6623
rradius 33.5154
rwrist -9.18279
rhand -24.6652 -21.2152
rfingers 7.12502
rthumb 1.83489 -51.1871
lclavicle 6.4605e-015 -2.38542e-014
lhumerus -52.6385 -2.91355 69.3664
lradius 31.0693
lwrist -6.83186
lhand -26.5456 28.056
lfingers 7.12502
lthumb 0.0188224 58.0358
rfemur 2.14362 0.652538 30.5325
rtibia 34.4245
rfoot -8.18021 -7.67102
rtoes -41.6362
lfemur -26.8883 -13.2738 -19.5774
ltibia 24.6768
lfoot -11.9139 0.644852
ltoes -17.5847
